<?xml version="1.0" encoding="utf-8"?><svg xml:space="preserve" viewBox="0 0 100 100" y="0" x="0" xmlns="http://www.w3.org/2000/svg" id="圖層_1" version="1.1" width="200px" height="200px" xmlns:xlink="http://www.w3.org/1999/xlink" style="width:100%;height:100%;background-size:initial;background-repeat-y:initial;background-repeat-x:initial;background-position-y:initial;background-position-x:initial;background-origin:initial;background-color:initial;background-clip:initial;background-attachment:initial;animation-play-state:paused" ><g class="ldl-scale" style="transform-origin-z:0px;transform-origin-y:50%;transform-origin-x:50%;transform:rotate(0deg) scale(0.8, 0.8);animation-play-state:paused" ><path fill="#666" d="M56.1 48.3c2.9-1.5 4.6-4.1 4.6-6.9v-3h1.8c.9 0 1.7-.8 1.7-1.7 0-.9-.8-1.7-1.7-1.7H37.9c-.9 0-1.7.8-1.7 1.7 0 .9.8 1.7 1.7 1.7h1.8v3c0 2.8 1.7 5.4 4.6 6.9.8.4 1.3 1 1.3 1.6v.6c0 .6-.5 1.2-1.3 1.6-2.9 1.5-4.6 4.1-4.6 6.9v3h-1.8c-.9 0-1.7.8-1.7 1.7s.8 1.7 1.7 1.7h24.6c.9 0 1.7-.8 1.7-1.7s-.8-1.7-1.7-1.7h-1.8v-3c0-2.8-1.7-5.4-4.6-6.9-.8-.4-1.3-1-1.3-1.6v-.6c.1-.6.5-1.2 1.3-1.6zm-1.6 6.9c1.8.9 2.8 2.4 2.8 3.9v3H43.1v-3c0-1.5 1.1-3 2.8-3.9 1.9-1 3.1-2.8 3.1-4.6V50c0-1.9-1.1-3.6-3.1-4.6-1.8-.9-2.8-2.4-2.8-3.9v-3h14.3v3c0 1.5-1.1 3-2.8 3.9-1.9 1-3.1 2.8-3.1 4.6v.6c0 1.8 1.1 3.6 3 4.6z" style="fill:rgb(255, 255, 255);animation-play-state:paused" ></path>
<circle fill="#333" r="4.8" cy="16.3" cx="50.2" style="fill:rgb(255, 255, 255);animation-play-state:paused" ></circle>
<circle r="4.8" fill="#333" cy="20.7" cx="33.4" transform="rotate(-30 33.38 20.732)" style="fill:rgb(255, 255, 255);animation-play-state:paused" ></circle>
<circle r="4.8" fill="#333" cy="33" cx="21" transform="rotate(-60 20.973 32.963)" style="fill:rgb(255, 255, 255);animation-play-state:paused" ></circle>
<circle fill="#333" r="4.8" cy="49.8" cx="16.3" style="fill:rgb(255, 255, 255);animation-play-state:paused" ></circle>
<circle r="4.8" fill="#333" cy="66.6" cx="20.7" transform="rotate(-30 20.728 66.619)" style="fill:rgb(255, 255, 255);animation-play-state:paused" ></circle>
<circle r="4.8" fill="#333" cy="79" cx="33" transform="rotate(-60 32.961 79.03)" style="fill:rgb(255, 255, 255);animation-play-state:paused" ></circle>
<circle fill="#333" r="4.8" cy="83.7" cx="49.8" style="fill:rgb(255, 255, 255);animation-play-state:paused" ></circle>
<circle r="4.8" fill="#333" cy="79.3" cx="66.6" transform="rotate(-30 66.614 79.271)" style="fill:rgb(255, 255, 255);animation-play-state:paused" ></circle>
<circle r="4.8" fill="#333" cy="67" cx="79" transform="rotate(-60 79.028 67.04)" style="fill:rgb(255, 255, 255);animation-play-state:paused" ></circle>
<circle fill="#333" r="4.8" cy="50.2" cx="83.7" style="fill:rgb(255, 255, 255);animation-play-state:paused" ></circle>
<circle r="4.8" fill="#333" cy="33.4" cx="79.3" transform="rotate(-30 79.267 33.384)" style="fill:rgb(255, 255, 255);animation-play-state:paused" ></circle>
<circle r="4.8" fill="#333" cy="21" cx="67" transform="rotate(-60 67.04 20.974)" style="fill:rgb(255, 255, 255);animation-play-state:paused" ></circle>
<metadata xmlns:d="https://loading.io/stock/" style="animation-play-state:paused" ><d:name style="animation-play-state:paused" >wait</d:name>
<d:tags style="animation-play-state:paused" >wait,spinner,hourglass,loader,preloader,ajax spinner,waiting icon,loading icon,loading gif</d:tags>
<d:license style="animation-play-state:paused" >by</d:license>
<d:slug style="animation-play-state:paused" >6dzffi</d:slug></metadata></g><!-- generated by https://loading.io/ --></svg>